<svg preserveAspectRatio="none" width="100%" height="100%" overflow="visible" style="display: block;" viewBox="0 0 18.3333 18.3333" fill="none" xmlns="http://www.w3.org/2000/svg">
<g id="icon">
<path id="shape" fill-rule="evenodd" clip-rule="evenodd" d="M13.4578 1.66667C14.7029 1.66672 15.8738 1.93121 16.7546 2.39746C17.613 2.85199 18.3332 3.5842 18.3333 4.55729V16.0824C18.3333 16.4055 18.0714 16.6675 17.7482 16.6675C17.4251 16.6675 17.1631 16.4055 17.1631 16.0824C17.1629 15.7494 16.9083 15.3282 16.2069 14.9569C15.5275 14.5973 14.5528 14.3628 13.4578 14.3628C12.3627 14.3628 11.3874 14.5972 10.708 14.9569C10.0066 15.3282 9.75197 15.7494 9.75179 16.0824C9.75165 16.4054 9.48972 16.6683 9.16667 16.6683C8.84361 16.6683 8.58168 16.4062 8.58154 16.0832C8.58136 15.7503 8.32673 15.3282 7.62532 14.9569C6.94599 14.5973 5.97129 14.3628 4.8763 14.3628C3.78115 14.3628 2.80588 14.5972 2.12646 14.9569C1.42506 15.3282 1.17043 15.7494 1.17025 16.0824L1.15804 16.2004C1.10349 16.467 0.867885 16.6675 0.585124 16.6675C0.302363 16.6675 0.0667563 16.467 0.012207 16.2004L0 16.0824V4.55729C8.86159e-05 3.58421 0.72032 2.852 1.57878 2.39746C2.45963 1.93116 3.63113 1.66667 4.8763 1.66667C6.12133 1.66672 7.29225 1.93121 8.17301 2.39746C8.54623 2.59507 8.89351 2.84511 9.16667 3.14453C9.43982 2.84511 9.7871 2.59507 10.1603 2.39746C11.0412 1.93116 12.2127 1.66667 13.4578 1.66667ZM4.8763 2.83691C3.78112 2.83691 2.80588 3.07215 2.12646 3.4318C1.42508 3.80316 1.17034 4.22438 1.17025 4.55729V14.1699C1.30109 14.0806 1.43792 13.9979 1.57878 13.9233C2.45963 13.457 3.63113 13.1925 4.8763 13.1925C6.12133 13.1926 7.29225 13.4571 8.17301 13.9233C8.31373 13.9979 8.4508 14.0799 8.58154 14.1691V4.55729C8.58145 4.22438 8.32672 3.80316 7.62532 3.4318C6.94599 3.07219 5.97132 2.83697 4.8763 2.83691ZM13.4578 2.83691C12.3627 2.83691 11.3874 3.07215 10.708 3.4318C10.0945 3.75664 9.82252 4.11933 9.764 4.4279L9.75179 4.55729V14.1691C9.88253 14.0799 10.0196 13.9979 10.1603 13.9233C11.0412 13.457 12.2127 13.1925 13.4578 13.1925C14.7029 13.1926 15.8738 13.4571 16.7546 13.9233C16.8953 13.9979 17.0324 14.0799 17.1631 14.1691V4.55729C17.163 4.22438 16.9083 3.80317 16.2069 3.4318C15.5275 3.07219 14.5529 2.83697 13.4578 2.83691Z" fill="var(--fill-0, black)"/>
</g>
</svg>
