<svg preserveAspectRatio="none" width="100%" height="100%" overflow="visible" style="display: block;" viewBox="0 0 70.4185 15.6498" fill="none" xmlns="http://www.w3.org/2000/svg">
<path id="shape" d="M8.21668 0C10.7543 3.07969e-05 12.8777 0.850073 14.3091 2.48016L12.5302 4.21875C11.4439 3.08031 9.93176 2.44979 8.36087 2.48016C5.13107 2.48026 2.85507 4.6736 2.85507 7.82529C2.85519 10.9128 5.13115 13.1728 8.33863 13.1729C9.43018 13.196 10.5086 12.9249 11.4607 12.3893V9.40485H8.43586V6.89667H14.1147V13.7159C12.5303 14.9975 10.3205 15.6498 8.17465 15.6498C3.46895 15.6497 0.000122798 12.3674 0 7.82529C0 3.28297 3.4691 0 8.21668 0ZM33.8365 7.63083L38.2753 0.301575H41.0488L35.159 10.0665V15.433H32.341V10.1077L26.4282 0.301575H29.4414L33.8365 7.63083ZM62.1582 10.303L68.0282 0.301575H70.3963L70.4185 15.433H67.753L67.7307 5.34842L62.7449 13.6945H61.4883L56.5016 5.47943V15.433H53.8138V0.301575H56.1819L62.1582 10.303Z" fill="var(--fill-0, black)"/>
</svg>
