<svg preserveAspectRatio="none" width="100%" height="100%" overflow="visible" style="display: block;" viewBox="0 0 18.3333 18.3333" fill="none" xmlns="http://www.w3.org/2000/svg">
<g id="icon">
<g id="shape">
<path d="M8.54329 9.6875C8.88847 9.6875 9.16829 9.96732 9.16829 10.3125C9.16829 10.6577 8.88847 10.9375 8.54329 10.9375H8.12663C7.78145 10.9375 7.50163 10.6577 7.50163 10.3125C7.50163 9.96732 7.78145 9.6875 8.12663 9.6875H8.54329Z" fill="var(--fill-0, black)"/>
<path fill-rule="evenodd" clip-rule="evenodd" d="M9.58089 0C10.3861 0.000219835 11.0392 0.653054 11.0392 1.45833V5.69824C11.039 6.50351 10.3854 7.15657 9.58008 7.15657H8.95589V8.01595H9.16423C10.4297 8.01617 11.4559 9.0421 11.4559 10.3076V16.875H12.7059V4.84375C12.7059 4.49857 12.9857 4.21875 13.3309 4.21875C13.6759 4.21897 13.9559 4.49871 13.9559 4.84375V16.875H15.0016C15.3468 16.875 15.6266 17.1548 15.6266 17.5C15.6266 17.8452 15.3468 18.125 15.0016 18.125H3.33333C2.98816 18.125 2.70833 17.8452 2.70833 17.5C2.70833 17.1548 2.98816 16.875 3.33333 16.875H5.20589V10.3076C5.20589 9.04196 6.23191 8.01595 7.49756 8.01595H7.70589V7.15657H7.08008C6.27496 7.15636 5.62273 6.50337 5.62256 5.69824V1.45833C5.62256 0.652919 6.27548 0 7.08089 0H9.58089ZM7.49756 9.26595C6.92226 9.26595 6.45589 9.73232 6.45589 10.3076V16.875H10.2059V10.3076C10.2059 9.73246 9.73933 9.26617 9.16423 9.26595H7.49756ZM7.08089 1.25C6.96583 1.25 6.87256 1.34327 6.87256 1.45833V5.69824C6.87273 5.81302 6.96531 5.90636 7.08008 5.90657H9.58008C9.69503 5.90657 9.78905 5.81315 9.78923 5.69824V1.45833C9.78923 1.34341 9.69576 1.25022 9.58089 1.25H7.08089Z" fill="var(--fill-0, black)"/>
</g>
</g>
</svg>
