<svg preserveAspectRatio="none" width="100%" height="100%" overflow="visible" style="display: block;" viewBox="0 0 18.3333 18.3333" fill="none" xmlns="http://www.w3.org/2000/svg">
<g id="icon">
<path id="shape" d="M13.3625 1.66667C13.6943 1.66671 13.9672 1.91944 14.0002 2.2434L14.0036 2.30952V12.7585L14.0002 12.8246C13.9672 13.1486 13.6943 13.4013 13.3625 13.4013C13.0308 13.4013 12.7579 13.1486 12.7249 12.8246L12.7215 12.7585L12.714 12.6312C12.6442 11.9975 12.0598 11.4418 11.2642 11.4418H9.10824V14.718C9.10806 15.8368 8.15185 16.6665 7.06914 16.6667C5.98628 16.6667 5.02939 15.8369 5.02921 14.718V11.4418H4.97079C2.72995 11.4417 0.833562 9.73472 0.833333 7.53441C0.833333 5.33392 2.72981 3.62625 4.97079 3.62621H11.2642C12.1127 3.62621 12.7215 2.99423 12.7215 2.30952C12.7215 1.95448 13.0085 1.66667 13.3625 1.66667ZM6.31126 14.718C6.31146 15.0421 6.60681 15.381 7.06914 15.381C7.53126 15.3808 7.82599 15.042 7.82619 14.718V11.4418H6.31126V14.718ZM12.7215 4.5093C12.2944 4.76419 11.7926 4.91192 11.2642 4.91192H6.31126V10.1561H11.2642C11.7925 10.1561 12.2945 10.3031 12.7215 10.5578V4.5093ZM4.97079 4.91192C3.35029 4.91196 2.11538 6.12875 2.11538 7.53441C2.11562 8.93991 3.35045 10.156 4.97079 10.1561H5.02921V4.91192H4.97079ZM15.8323 5.85612C16.0265 5.74044 16.2673 5.73545 16.4658 5.84356C17.0595 6.16693 17.5 6.78493 17.5 7.53441C17.4998 8.28323 17.0596 8.90145 16.465 9.22442C16.2664 9.33229 16.0256 9.32777 15.8315 9.21187C15.6375 9.09596 15.5186 8.88588 15.5185 8.65941V6.40858C15.5186 6.18198 15.6381 5.97197 15.8323 5.85612Z" fill="var(--fill-0, black)"/>
</g>
</svg>
