<svg preserveAspectRatio="none" width="100%" height="100%" overflow="visible" style="display: block;" viewBox="0 0 18.3333 18.3341" fill="none" xmlns="http://www.w3.org/2000/svg">
<g id="icon">
<path id="shape" d="M13.4676 0C14.7682 0.000109114 15.8332 1.04634 15.8333 2.34945V15.9847C15.8331 17.2877 14.7682 18.334 13.4676 18.3341H4.86572C3.56514 18.3341 2.50025 17.2878 2.5 15.9847V2.34945C2.50014 1.04629 3.56507 2.8121e-05 4.86572 0H13.4676ZM4.86572 1.29069C4.26626 1.29072 3.79084 1.77029 3.79069 2.34945V15.9847C3.79094 16.5638 4.26632 17.0434 4.86572 17.0435H13.4676C14.067 17.0433 14.5432 16.5637 14.5435 15.9847V2.34945C14.5433 1.77033 14.067 1.2908 13.4676 1.29069H4.86572ZM10.4053 2.55615C10.7847 2.55637 11.1026 2.86302 11.1027 3.25277C11.1025 3.64242 10.7847 3.94916 10.4053 3.94938H7.92887C7.57312 3.94938 7.27205 3.6799 7.23551 3.3252L7.23144 3.25277L7.23551 3.18115C7.27163 2.826 7.57282 2.55615 7.92887 2.55615H10.4053Z" fill="var(--fill-0, black)"/>
</g>
</svg>
