<svg preserveAspectRatio="none" width="100%" height="100%" overflow="visible" style="display: block;" viewBox="0 0 18.3333 18.3333" fill="none" xmlns="http://www.w3.org/2000/svg">
<g id="icon">
<path id="shape" d="M8.47826 13.4871C8.47832 13.1166 8.78649 12.8162 9.16632 12.8161C9.54628 12.8161 9.85431 13.1165 9.85438 13.4871V16.9914H14.3653C15.3369 16.9914 16.124 16.2239 16.124 15.2763V6.62343C16.124 6.48107 16.0639 6.3453 15.96 6.24775L15.9125 6.20843L9.49064 1.44863L9.48974 1.44775C9.32347 1.32429 9.10013 1.30897 8.91815 1.40232L8.84289 1.44863L2.42099 6.20843C2.28786 6.30697 2.20956 6.45984 2.20955 6.62343V15.2763C2.20955 16.2239 2.99658 16.9914 3.96823 16.9914H8.47826V13.4871ZM17.5001 15.2763C17.5001 16.965 16.097 18.3333 14.3653 18.3333H3.96823C2.23657 18.3333 0.833431 16.965 0.833431 15.2763V6.62343C0.833434 6.11325 1.04711 5.62958 1.41936 5.28058L1.58869 5.13905L8.01059 0.380116L8.14139 0.291001C8.81088 -0.124388 9.68236 -0.0953605 10.3229 0.380116L16.7439 5.13905H16.7448C17.2212 5.49162 17.5001 6.04184 17.5001 6.62343V15.2763Z" fill="var(--fill-0, black)"/>
</g>
</svg>
