<svg preserveAspectRatio="none" width="100%" height="100%" overflow="visible" style="display: block;" viewBox="0 0 18.3879 18.3333" fill="none" xmlns="http://www.w3.org/2000/svg">
<g id="icon">
<path id="shape" fill-rule="evenodd" clip-rule="evenodd" d="M5.33854 0.910214C6.63415 0.910214 7.68473 1.9608 7.68473 3.25641V4.86936C7.68477 5.29625 8.03102 5.64218 8.45784 5.64247H9.21061C9.36598 5.64247 9.5149 5.67116 9.65251 5.72223C10.1104 5.02668 10.8978 4.56744 11.7928 4.56744C13.2071 4.56757 14.3538 5.71415 14.3538 7.12848C14.3537 8.54268 13.207 9.68938 11.7928 9.68951C10.7455 9.68951 9.84595 9.0601 9.44906 8.15956C9.37187 8.17421 9.29206 8.18316 9.21061 8.18316H8.45784C8.031 8.18346 7.68473 8.53017 7.68473 8.95709V15.3023C7.68476 15.9074 8.17587 16.3983 8.78092 16.3985H11.0791C11.5655 16.3985 11.9604 16.0036 11.9604 15.5171V15.0232C11.9604 14.89 11.9776 14.7605 12.0076 14.6366H11.2891C10.9441 14.6364 10.6641 14.3566 10.6641 14.0116C10.6641 13.6666 10.9441 13.3868 11.2891 13.3866H15.5916C15.9366 13.3868 16.2166 13.6666 16.2166 14.0116C16.2166 14.3566 15.9366 14.6364 15.5916 14.6366H15.1847C15.2148 14.7606 15.2319 14.89 15.2319 15.0232V15.5171C15.232 16.0034 15.627 16.3983 16.1133 16.3985H17.3853C17.7303 16.3986 18.0103 16.6784 18.0103 17.0235C18.0101 17.3685 17.7303 17.6484 17.3853 17.6485H0.625C0.280078 17.6483 0.000138799 17.3684 0 17.0235C0 16.6784 0.279993 16.3987 0.625 16.3985H1.46647C2.0717 16.3985 2.56263 15.9075 2.56266 15.3023V3.25641C2.56266 1.96093 3.61342 0.910415 4.90885 0.910214H5.33854ZM4.90885 2.16021C4.30378 2.16041 3.81266 2.65128 3.81266 3.25641V15.3023C3.81265 15.6984 3.71341 16.0712 3.54004 16.3985H6.70736C6.53401 16.0713 6.43474 15.6984 6.43473 15.3023V8.95709C6.43473 7.83982 7.34064 6.93346 8.45784 6.93316H9.21061C9.21421 6.93316 9.21715 6.93289 9.21875 6.93235C9.22064 6.93155 9.22307 6.92961 9.22526 6.92747C9.22743 6.92529 9.22927 6.92287 9.23014 6.92096C9.2308 6.9194 9.23096 6.91675 9.23096 6.91282C9.23093 6.90916 9.23014 6.90549 9.23014 6.90549C9.2293 6.90356 9.22746 6.90121 9.22526 6.89898C9.22304 6.89678 9.22068 6.89492 9.21875 6.8941C9.21716 6.89345 9.21433 6.89247 9.21061 6.89247H8.45784C7.34066 6.89218 6.43477 5.98661 6.43473 4.86936V3.25641C6.43473 2.65116 5.94379 2.16021 5.33854 2.16021H4.90885ZM13.5962 14.6366C13.3831 14.6368 13.2104 14.81 13.2104 15.0232V15.5171C13.2104 15.8315 13.1406 16.1299 13.0184 16.3985H14.174C14.0518 16.1299 13.9819 15.8315 13.9819 15.5171V15.0232C13.9819 14.8099 13.8094 14.6366 13.5962 14.6366ZM11.7928 5.81744C11.0688 5.81744 10.4818 6.40442 10.4818 7.12848C10.4819 7.8524 11.0688 8.43951 11.7928 8.43951C12.5167 8.43938 13.1037 7.85232 13.1038 7.12848C13.1038 6.4045 12.5167 5.81757 11.7928 5.81744Z" fill="var(--fill-0, black)"/>
</g>
</svg>
