<svg preserveAspectRatio="none" width="100%" height="100%" overflow="visible" style="display: block;" viewBox="0 0 14.0103 17.5001" fill="none" xmlns="http://www.w3.org/2000/svg">
<g id="Group 26086157">
<path id="Vector 12" d="M1.53049 16.75L1.72519 16.5553C2.10026 16.1802 2.60897 15.9695 3.1394 15.9695H11.0713C11.4661 15.9695 11.8521 16.0864 12.1807 16.3054L12.8476 16.75" stroke="var(--stroke-0, black)" stroke-width="1.5" stroke-linecap="round"/>
<path id="Vector 13" d="M12.8476 13.2378C12.8476 14.3003 12.3654 14.941 11.8934 15.4059C11.5155 15.7781 10.9886 15.9695 10.4582 15.9695H4.56159C3.53415 15.9695 2.70123 15.7877 2.70123 14.7603C2.70123 14.2082 2.94254 13.0271 3.38458 12.6963C5.3678 11.2122 6.87782 10.8964 9.33537 10.8964C11.2866 10.8964 12.8476 12.0671 12.8476 13.2378Z" stroke="var(--stroke-0, black)" stroke-width="1.5" stroke-linecap="round"/>
<path id="Vector 14" d="M10.1159 10.8968L10.8963 8.16512M8.16464 6.60376C8.16464 7.51604 11.5207 8.47732 12.4573 8.16512C13.6281 7.77488 13.2972 6.66363 12.8476 6.2139C12.067 5.43317 8.16464 5.95759 8.16464 6.60376Z" stroke="var(--stroke-0, black)" stroke-width="1.5" stroke-linecap="round"/>
<path id="Vector 15" d="M3.09141 12.8476C2.05076 11.937 1.92073 9.72563 1.92073 8.5549C1.92073 6.21343 2.70122 5.43295 2.70122 5.43295" stroke="var(--stroke-0, black)" stroke-width="1.5" stroke-linecap="round"/>
<path id="Vector 16" d="M0.750001 2.70124L4.28856 6.06839C4.68702 6.44755 5.31515 6.43976 5.70407 6.05083C6.13127 5.62363 6.0923 4.91995 5.62054 4.54254L4.70506 3.81016C4.25964 3.45382 3.98756 2.92424 3.95727 2.35462L3.87195 0.750019" stroke="var(--stroke-0, black)" stroke-width="1.5" stroke-linecap="round"/>
</g>
</svg>
