<svg preserveAspectRatio="none" width="100%" height="100%" overflow="visible" style="display: block;" viewBox="0 0 18.3333 18.4173" fill="none" xmlns="http://www.w3.org/2000/svg">
<g id="icon">
<path id="shape" fill-rule="evenodd" clip-rule="evenodd" d="M7.09244 0.519358C7.15106 0.179365 7.47426 -0.0492917 7.81428 0.00910373C8.15424 0.067695 8.38282 0.390969 8.32453 0.730946C8.29799 0.885113 8.28069 1.01888 8.27082 1.14599C8.30965 1.22737 8.33346 1.31755 8.33348 1.41373C8.33348 1.50661 8.31124 1.59409 8.27489 1.67333C8.28588 1.80408 8.30293 1.94698 8.32697 2.11441C8.37603 2.45601 8.13876 2.77245 7.79719 2.8216C7.45556 2.87061 7.13907 2.63345 7.08999 2.29182C7.08169 2.23398 7.07593 2.17777 7.06884 2.12336C6.73875 2.21953 6.49262 2.39136 6.31119 2.60595C6.11239 2.84123 5.96735 3.15954 5.89208 3.55077H7.56526C8.06466 3.55082 8.55059 3.71396 8.94872 4.01545L9.22785 4.22704C9.27517 4.26288 9.31928 4.30166 9.36294 4.34016H12.2918C12.6369 4.34024 12.9167 4.6201 12.9168 4.96516V6.14843C12.9168 6.49355 12.6369 6.77334 12.2918 6.77343C11.9466 6.77343 11.6668 6.4936 11.6668 6.14843V5.59016H10.1222C10.2941 6.22016 10.2588 6.90449 10.0734 7.47736C9.80962 8.29217 9.58353 9.43445 9.58348 10.8823C9.58348 12.3764 9.82406 13.8757 10.1116 15.1002C10.1339 15.1952 10.1504 15.291 10.1613 15.3867H11.6668V13.0853H11.0418C10.6966 13.0853 10.4168 12.8055 10.4168 12.4603C10.4169 12.1152 10.6967 11.8353 11.0418 11.8353H13.5418C13.8869 11.8354 14.1667 12.1152 14.1668 12.4603C14.1668 12.8054 13.8869 13.0852 13.5418 13.0853H12.9168V15.3867H14.5835V8.70783C14.3412 8.62178 14.1668 8.39287 14.1668 8.12108V5.17349C14.1669 4.71333 14.54 4.34016 15.0002 4.34016C15.4603 4.34024 15.8334 4.71338 15.8335 5.17349V17.7923C15.8334 18.1374 15.5535 18.4172 15.2085 18.4173C14.8634 18.4173 14.5836 18.1374 14.5835 17.7923V16.6367H12.9168V17.7923C12.9167 18.1374 12.6369 18.4172 12.2918 18.4173C11.9467 18.4173 11.6669 18.1374 11.6668 17.7923V16.6367H9.99201C9.6406 17.5263 8.81643 18.2146 7.75568 18.2147H4.97736C3.61403 18.2147 2.56207 17.0367 2.67268 15.6943C2.79547 14.204 2.91682 12.3249 2.91682 10.8823C2.91679 9.43964 2.79547 7.56055 2.67268 6.0703C2.57216 4.84739 3.43622 3.76096 4.62173 3.57763C4.70683 2.91013 4.94036 2.29123 5.35578 1.79947C5.77748 1.30045 6.35167 0.973125 7.04442 0.84732C7.05681 0.743848 7.07249 0.635245 7.09244 0.519358ZM4.97736 4.80077C4.36135 4.80077 3.86688 5.33751 3.91861 5.96776C4.04209 7.4663 4.16679 9.3867 4.16682 10.8823C4.16682 12.3778 4.04208 14.2982 3.91861 15.7969C3.86666 16.4273 4.36123 16.9647 4.97736 16.9647H7.75568C8.47675 16.9646 9.08423 16.1919 8.89501 15.3859C8.59306 14.1002 8.33348 12.5011 8.33348 10.8823C8.33353 9.30419 8.58025 8.03205 8.88443 7.09244C9.12036 6.36351 8.93777 5.57576 8.47346 5.22395L8.19432 5.01236C8.01337 4.87529 7.79226 4.80082 7.56526 4.80077H4.97736Z" fill="var(--fill-0, #292929)"/>
</g>
</svg>
