<svg preserveAspectRatio="none" width="100%" height="100%" overflow="visible" style="display: block;" viewBox="0 0 18.3333 18.3333" fill="none" xmlns="http://www.w3.org/2000/svg">
<g id="icon">
<g id="shape">
<path d="M9.16667 12.5773C9.75534 12.5773 10.2327 13.0547 10.2327 13.6434C10.2327 14.2321 9.75534 14.7095 9.16667 14.7095C8.57799 14.7095 8.10059 14.2321 8.10059 13.6434C8.1006 13.0547 8.578 12.5773 9.16667 12.5773Z" fill="var(--fill-0, black)"/>
<path d="M9.57926 3.41553C10.2931 3.4525 11.0406 3.66902 11.6138 4.1626C12.2082 4.67452 12.5509 5.43112 12.5187 6.39648C12.4954 7.08422 12.2903 7.61279 11.9727 8.03955C11.6703 8.44576 11.2821 8.73466 10.9676 8.96647C10.3357 9.4322 9.91754 9.73818 9.80143 10.4395C9.80145 10.4413 9.80222 10.4433 9.80225 10.4451C9.80225 10.7763 9.55097 11.0488 9.22851 11.0815L9.16341 11.0848H9.15364C8.97024 11.0848 8.79569 11.0058 8.67432 10.8683C8.5531 10.7309 8.49618 10.5481 8.51888 10.3662C8.69029 8.99737 9.5889 8.39412 10.2091 7.93701C10.5331 7.69826 10.7723 7.51013 10.9465 7.2762C11.1053 7.06282 11.2255 6.78734 11.2402 6.35417L11.2378 6.13525C11.2083 5.65111 11.0207 5.34017 10.7788 5.13184C10.481 4.87552 10.0348 4.72021 9.51253 4.6932C8.54707 4.64338 7.71367 5.17078 7.4349 6.23291L6.81641 6.07015L6.19792 5.9082C6.63882 4.22829 8.04142 3.33595 9.57926 3.41553Z" fill="var(--fill-0, black)"/>
<path d="M7.4349 6.23291C7.3451 6.5742 6.99586 6.77804 6.65446 6.68864C6.31299 6.59896 6.10847 6.2497 6.19792 5.9082L7.4349 6.23291Z" fill="var(--fill-0, black)"/>
<path fill-rule="evenodd" clip-rule="evenodd" d="M9.16667 0C14.2292 6.13667e-05 18.3333 4.10415 18.3333 9.16667C18.3333 14.2292 14.2292 18.3333 9.16667 18.3333C4.10415 18.3333 6.13686e-05 14.2292 0 9.16667C6.14191e-05 4.10415 4.10415 6.14172e-05 9.16667 0ZM9.16667 1.2793C4.81056 1.27936 1.27936 4.81056 1.2793 9.16667C1.27936 13.5228 4.81056 17.054 9.16667 17.054C13.5228 17.054 17.054 13.5228 17.054 9.16667C17.054 4.81056 13.5228 1.27936 9.16667 1.2793Z" fill="var(--fill-0, black)"/>
</g>
</g>
</svg>
