<svg preserveAspectRatio="none" width="100%" height="100%" overflow="visible" style="display: block;" viewBox="0 0 18.3333 18.3334" fill="none" xmlns="http://www.w3.org/2000/svg">
<g id="icon">
<path id="shape" d="M8.47826 13.4871C8.47833 13.1166 8.7865 12.8162 9.16633 12.8161C9.54629 12.8161 9.85432 13.1165 9.85439 13.4871V16.9914H14.3653C15.337 16.9914 16.124 16.2239 16.124 15.2764V6.62344C16.124 6.48109 16.0639 6.34532 15.96 6.24776L15.9125 6.20844L9.49065 1.44864L9.48975 1.44777C9.32348 1.32431 9.10014 1.30898 8.91816 1.40234L8.8429 1.44864L2.421 6.20844C2.28787 6.30699 2.20957 6.45986 2.20956 6.62344V15.2764C2.20956 16.2239 2.99659 16.9914 3.96824 16.9914H8.47826V13.4871ZM17.5001 15.2764C17.5001 16.9651 16.097 18.3334 14.3653 18.3334H3.96824C2.23658 18.3334 0.83344 16.9651 0.83344 15.2764V6.62344C0.833443 6.11327 1.04712 5.62959 1.41937 5.2806L1.58869 5.13906L8.0106 0.380132L8.1414 0.291016C8.81089 -0.124372 9.68237 -0.0953453 10.3229 0.380132L16.744 5.13906H16.7449C17.2212 5.49163 17.5001 6.04186 17.5001 6.62344V15.2764Z" fill="var(--fill-0, black)"/>
</g>
</svg>
